<?xml version="1.0" encoding="UTF-8"?>
<svg xmlns="http://www.w3.org/2000/svg" width="256" height="256" viewBox="0 0 256 256">
  <rect width="256" height="256" rx="32" ry="32" fill="#0ea5a4"/>
  <g transform="translate(48,48) scale(0.75)">
    <rect x="32" y="16" width="128" height="112" rx="16" fill="#ffffff"/>
    <rect x="56" y="96" width="80" height="24" rx="6" fill="#0ea5a4"/>
    <circle cx="64" cy="56" r="10" fill="#0ea5a4"/>
    <circle cx="128" cy="56" r="10" fill="#0ea5a4"/>
    <rect x="88" y="40" width="32" height="8" rx="4" fill="#c7f9f8"/>
    <rect x="8" y="56" width="16" height="8" rx="3" fill="#c7f9f8"/>
    <rect x="168" y="56" width="16" height="8" rx="3" fill="#c7f9f8"/>
    <rect x="80" y="-8" width="48" height="24" rx="8" fill="#ffffff" />
    <rect x="96" y="-4" width="16" height="8" rx="4" fill="#0ea5a4" />
  </g>
</svg>
<svg xmlns="http://www.w3.org/2000/svg" viewBox="0 0 120 120">
  <defs>
    <linearGradient id="grad" x1="0%" y1="0%" x2="100%" y2="100%">
      <stop offset="0%" stop-color="#4f46e5"/>
      <stop offset="100%" stop-color="#22c55e"/>
    </linearGradient>
  </defs>
  <rect x="10" y="20" width="100" height="80" rx="18" fill="url(#grad)"/>
  <circle cx="36" cy="48" r="10" fill="#fff"/>
  <circle cx="84" cy="48" r="10" fill="#fff"/>
  <rect x="42" y="30" width="36" height="8" rx="4" fill="#fff" opacity="0.6"/>
  <rect x="40" y="74" width="40" height="10" rx="5" fill="#fff"/>
  <path d="M30 90c0 8 12 6 20 6s20 2 20-6" fill="none" stroke="#fff" stroke-width="6" stroke-linecap="round"/>
</svg>
